<?xml version="1.0" standalone="no"?>
<svg xmlns:xlink="http://www.w3.org/1999/xlink" id="wave" style="transform:rotate(0deg); transition: 0.3s" viewBox="0 0 1440 270" version="1.1" xmlns="http://www.w3.org/2000/svg"><defs><linearGradient id="sw-gradient-0" x1="0" x2="0" y1="1" y2="0"><stop stop-color="rgba(255, 255, 255, 1)" offset="0%"/><stop stop-color="rgba(255, 255, 255, 1)" offset="100%"/></linearGradient></defs><path style="transform:translate(0, 0px); opacity:1" fill="url(#sw-gradient-0)" d="M0,54L12.6,76.5C25.3,99,51,144,76,135C101.1,126,126,63,152,67.5C176.8,72,202,144,227,148.5C252.6,153,278,90,303,58.5C328.4,27,354,27,379,22.5C404.2,18,429,9,455,36C480,63,505,126,531,126C555.8,126,581,63,606,67.5C631.6,72,657,144,682,153C707.4,162,733,108,758,90C783.2,72,808,90,834,94.5C858.9,99,884,90,909,99C934.7,108,960,135,985,157.5C1010.5,180,1036,198,1061,175.5C1086.3,153,1112,90,1137,72C1162.1,54,1187,81,1213,103.5C1237.9,126,1263,144,1288,162C1313.7,180,1339,198,1364,184.5C1389.5,171,1415,126,1440,112.5C1465.3,99,1491,117,1516,126C1541.1,135,1566,135,1592,126C1616.8,117,1642,99,1667,76.5C1692.6,54,1718,27,1743,40.5C1768.4,54,1794,108,1806,135L1818.9,162L1818.9,270L1806.3,270C1793.7,270,1768,270,1743,270C1717.9,270,1693,270,1667,270C1642.1,270,1617,270,1592,270C1566.3,270,1541,270,1516,270C1490.5,270,1465,270,1440,270C1414.7,270,1389,270,1364,270C1338.9,270,1314,270,1288,270C1263.2,270,1238,270,1213,270C1187.4,270,1162,270,1137,270C1111.6,270,1086,270,1061,270C1035.8,270,1011,270,985,270C960,270,935,270,909,270C884.2,270,859,270,834,270C808.4,270,783,270,758,270C732.6,270,707,270,682,270C656.8,270,632,270,606,270C581.1,270,556,270,531,270C505.3,270,480,270,455,270C429.5,270,404,270,379,270C353.7,270,328,270,303,270C277.9,270,253,270,227,270C202.1,270,177,270,152,270C126.3,270,101,270,76,270C50.5,270,25,270,13,270L0,270Z"/></svg>